# xmcd CD database file
#
# Track frame offsets:
#	150
#	12245
#	26265
#	38986
#	51433
#	63577
#	84271
#	97493
#	110895
#	126183
#	136913
#	153494
#	167094
#	184612
#	195987
#	206894
#	223567
#	240317
#	254032
#	279773
#	300817
#	324355
#
# Disc length: 4654 seconds
#
# Revision: 0
# Processed by: cddbd v1.5.2PL0 Copyright (c) Steve Scherf et al.
# Submitted via: CDex 1.51
#
DISCID=33122c16
DTITLE=Schweizer Armeespiel - 50 Jahre Schweizer Armeespiel - Marche
DYEAR=2007
DGENRE=Country
TTITLE0=Repraesentationsorchester Schweizer Armeespiel - Wettsteinmarsch
TTITLE1=Repraesentationsorchester Schweizer Armeespiel - Bannertreue
TTITLE2=Repraesentationsorchester Schweizer Armeespiel - Allewyl Guet Schuss
TTITLE3=Repraesentationsorchester Schweizer Armeespiel - Libertas
TTITLE4=Repraesentationsorchester Schweizer Armeespiel - Fulenbachermarsch
TTITLE5=Repraesentationsorchester Schweizer Armeespiel - Con Fuoco
TTITLE6=Repraesentationsorchester Schweizer Armeespiel - Marche Du Dragon
TTITLE7=Symphonisches Blasorchester Schweizer Armeespiel - Gandria
TTITLE8=Swiss Army Brass Band - General Guisan Marsch
TTITLE9=Tambouren Schweizer Armeespiel - Le Turbeau 116
TTITLE10=Repraesentationsorchester Schweizer Armeespiel - Castle - Jubilee March
TTITLE11=Swiss Army Brass Band - Jubilee
TTITLE12=Swiss Army Brass Band - The Dam Busters
TTITLE13=Repraesentationsorchester Schweizer Armeespiel - El Capitain
TTITLE14=Repraesentationsorchester Schweizer Armeespiel - March Of The Toys
TTITLE15=Repraesentationsorchester Schweizer Armeespiel - Neige D'avril
TTITLE16=Repraesentationsorchester Schweizer Armeespiel - St. Louis Blues March
TTITLE17=Repraesentationsorchester Schweizer Armeespiel - Faires of Fair
TTITLE18=Symphonisches Blasorchester Schweizer Armeespiel - Florentiner Marsch
TTITLE19=Repraesentationsorchester Schweizer Armeespiel - Entry of the Boyards
TTITLE20=Symphonisches Blasorchester Schweizer Armeespiel - Triumph Marsch
TTITLE21=Symphonisches Blasorchester Schweizer Armeespiel - Huldigungsmarsch
EXTD=YEAR: 2007
EXTT0=
EXTT1=
EXTT2=
EXTT3=
EXTT4=
EXTT5=
EXTT6=
EXTT7=
EXTT8=
EXTT9=
EXTT10=
EXTT11=
EXTT12=
EXTT13=
EXTT14=
EXTT15=
EXTT16=
EXTT17=
EXTT18=
EXTT19=
EXTT20=
EXTT21=
PLAYORDER=
